<svg width="118" height="26" viewBox="0 0 118 26" fill="none" xmlns="http://www.w3.org/2000/svg">
<g clip-path="url(#clip0_2:270)">
<path d="M16.888 14.4235C16.8481 14.4708 16.8099 14.5201 16.7675 14.5646L16.7667 14.5739L12.7844 19.0286L12.7777 19.0267C12.5135 19.3243 12.199 19.5604 11.8528 19.7214C11.5065 19.8824 11.1351 19.9651 10.76 19.9647H6.84001C6.7623 19.9645 6.68533 19.9816 6.61351 20.0147C6.54169 20.0479 6.47641 20.0966 6.42143 20.158C6.36644 20.2194 6.32282 20.2924 6.29306 20.3727C6.26329 20.4529 6.24798 20.5389 6.24798 20.6258V24.541L6.23552 24.5419C6.21429 24.6861 6.15795 24.8208 6.07269 24.9315C5.98744 25.0422 5.87656 25.1245 5.75224 25.1692C5.62792 25.2141 5.49497 25.2197 5.36797 25.1855C5.24098 25.1514 5.12486 25.0787 5.03236 24.9756L5.02987 24.9774L1.4179 20.9398L1.42122 20.9333C1.14466 20.6367 0.924618 20.2805 0.774355 19.8864C0.624091 19.4921 0.546712 19.068 0.546875 18.6395V8.5369C0.546875 7.68067 0.849949 6.90525 1.34151 6.33228L1.33985 6.32671L5.43508 1.74668L5.43674 1.74761C5.96821 1.16432 6.68326 0.837837 7.42788 0.838471H10.76C11.1852 0.838471 11.587 0.945265 11.9483 1.13192V1.12449C12.2572 1.28515 12.5378 1.50152 12.7736 1.76711L12.7786 1.76432L17.6394 7.20056L17.6402 13.5775H23.3281V23.4861C23.3297 23.4917 23.3297 23.4981 23.3297 23.5046V23.7284C23.3047 24.1306 23.1442 24.5072 22.8807 24.7822C22.6172 25.0573 22.2703 25.2103 21.9098 25.2105H19.0592C18.8623 25.2104 18.6677 25.1646 18.4873 25.0761C18.3071 24.9875 18.1451 24.8581 18.0118 24.6961C17.8785 24.5341 17.7766 24.3429 17.7127 24.1346C17.6487 23.9264 17.624 23.7055 17.6402 23.4861V13.5775L16.888 14.4235ZM11.3562 13.5849C11.4339 13.5851 11.5109 13.568 11.5827 13.5349C11.6546 13.5017 11.7198 13.453 11.7748 13.3916C11.8298 13.3302 11.8734 13.2573 11.9032 13.177C11.933 13.0967 11.9483 13.0107 11.9483 12.9237V7.87754C11.9483 7.79063 11.933 7.70458 11.9032 7.6243C11.8734 7.54402 11.8298 7.47109 11.7748 7.40968C11.7198 7.34827 11.6546 7.29959 11.5827 7.26641C11.5109 7.23324 11.4339 7.21623 11.3562 7.21635V7.21542H6.83918C6.6823 7.21542 6.53184 7.28505 6.42084 7.40902C6.30984 7.53299 6.24737 7.70116 6.24715 7.87661V12.9219C6.24715 13.2878 6.51202 13.5831 6.83918 13.5831H11.3545L11.3562 13.5849Z" fill="white"/>
<path d="M17.6436 13.5842H23.3314L17.6436 7.20905V13.5842Z" fill="white"/>
<path d="M31.394 6.15017H36.6575C38.8081 6.15017 40.7162 6.15017 41.8654 7.99537C42.3661 8.82464 42.6069 10.0058 42.6069 11.0005C42.6069 11.8083 42.4583 12.5968 42.1619 13.2802C41.0318 15.8925 38.6221 15.9547 36.8427 15.9955H34.6747V20.7836H31.394V6.15017ZM34.6763 8.84509V13.2802H36.6426C37.8673 13.2802 39.3511 13.2394 39.3511 10.98C39.3511 8.84418 37.6996 8.84418 36.7538 8.84418L34.6763 8.84509ZM46.5377 11.0812C47.1679 10.4795 47.8538 10.0031 49.336 9.83683V12.6562L48.391 12.8215C47.0201 13.0908 46.6116 13.3193 46.6116 14.6871V20.7808H43.7578V9.94085H46.5377V11.0812ZM60.4741 15.3483C60.4741 18.085 59.0658 21.0901 55.2845 21.0901C52.5602 21.0901 50.0766 19.3489 50.0766 15.3483C50.0766 12.0321 51.9482 9.39948 55.6557 9.62789C59.6031 9.87676 60.4741 13.3796 60.4741 15.3483ZM53.4312 13.2152C53.0791 13.8374 52.9496 14.585 52.9496 15.3325C52.9496 17.0552 53.6903 18.5707 55.2845 18.5707C56.8231 18.5707 57.5829 17.1796 57.5829 15.4783C57.5829 14.2739 57.323 13.3397 56.7858 12.7583C56.1929 12.1362 55.5253 12.1148 55.1176 12.1566C54.3022 12.2188 53.8206 12.5299 53.432 13.2152H53.4312ZM62.7916 8.88039C62.7916 8.34176 62.8281 7.61556 63.1985 7.03516C63.5514 6.49655 64.3477 5.93658 65.6828 5.93658C66.2574 5.93658 66.8321 6.04059 67.3875 6.12231V8.50706H66.7017C65.6272 8.50706 65.5716 8.75592 65.5899 10.2065H67.4988V12.1547H65.6081V20.778H62.7725V12.1547H61.253V10.2065H62.7916V8.88039Z" fill="white"/>
<path d="M68.9254 8.59795H71.7413V6.1315H68.9254V8.59795ZM68.9254 20.7863H71.7413V9.94545H68.9254V20.7863Z" fill="white"/>
<path d="M74.6514 6.82803H77.4869V10.2064H79.3592V12.1547H77.4686V17.0263C77.4503 17.6894 77.4503 18.2493 78.2104 18.2493L79.2292 18.2076V20.6945C78.6182 20.7985 78.247 20.8607 77.7288 20.8607C76.7452 20.8607 75.6709 20.7985 75.0592 19.8029C74.6704 19.1613 74.6521 18.3942 74.6521 17.3579V12.1343H73.2431V10.186H74.6514V6.82803Z" fill="white"/>
<path d="M90.0666 6.15039C90.4568 7.72535 90.8449 9.30122 91.2703 10.8771C91.9944 13.6955 92.1238 14.1515 92.5316 16.9913C92.9204 14.0893 93.0132 13.5925 93.6059 10.6069C93.8843 9.11463 94.1804 7.62228 94.4588 6.15039H97.7021L94.3849 20.7839H91.0115C90.6044 19.168 90.2143 17.5503 89.7882 15.9549C89.0837 13.26 89.0465 13.156 88.657 11.1046C88.3244 12.908 88.2871 13.053 87.5454 15.8509L86.2848 20.7839H82.9121L79.5949 6.15039H82.8572C84.2655 13.0938 84.4145 13.8608 84.8026 17.0321C85.2843 14.1311 85.415 13.5711 86.1005 10.6691L87.1748 6.15039H90.0666Z" fill="white"/>
<path d="M107.284 18.0296C106.95 18.5895 106.616 19.1281 106.116 19.6463C105.281 20.5174 104.021 21.1804 102.465 21.1804C99.592 21.1804 97.572 19.1281 97.572 15.5835C97.572 12.9722 98.7209 9.61426 102.539 9.61426C103.114 9.61426 104.781 9.67645 106.023 11.1688C107.284 12.6824 107.357 14.796 107.395 16.019H100.482C100.463 17.3655 101.149 18.714 102.688 18.714C104.244 18.714 104.781 17.5736 105.134 16.8065L107.284 18.0296ZM104.447 14.0197C104.392 13.5655 104.318 12.9675 103.91 12.493C103.557 12.1002 103.022 11.894 102.52 11.894C101.835 11.894 101.353 12.2655 101.075 12.5961C100.685 13.0706 100.593 13.5655 100.5 14.0197H104.447Z" fill="white"/>
<path d="M109.047 20.7839H111.901V6.15039H109.047V20.7839Z" fill="white"/>
<path d="M114.452 20.7839H117.306V6.15039H114.452V20.7839Z" fill="white"/>
</g>
<defs>
<clipPath id="clip0_2:270">
<rect width="117.188" height="25" fill="white" transform="translate(0.546875 0.5)"/>
</clipPath>
</defs>
</svg>
